<svg xmlns="http://www.w3.org/2000/svg" width="37" height="50.68965514973428"><rect id="backgroundrect" width="100%" height="100%" x="0" y="0" fill="none" stroke="none" class="" style=""/>
  
<g class="currentLayer" style=""><title>Layer 1</title>
    <g id="Group_2" data-name="Group 2" class="">
      <path id="Path_1" data-name="Path 1" d="M0.002005737304671129,18.64600125122071 A18.345,18.345 0 0 1 36.352005737304694,14.838001251220703 a22.848,22.848 0 0 1 -0.21400000000000008,8.978 a37.192,37.192 0 0 1 -6.087,13.834 a57.538,57.538 0 0 1 -11.327,12.173 a0.5,0.5 0 0 1 -0.7580000000000003,0 a53.3,53.3 0 0 1 -14.85,-18.311 A30.257,30.257 0 0 1 0.002005737304671129,18.64600125122071 zM18.13500573730471,3.838001251220703 a14.312,14.312 0 1 0 14.282,14.65 A14.295,14.295 0 0 0 18.13500573730471,3.838001251220703 z" fill="#54b6ff"/>
      <g id="Group_1" data-name="Group 1">
        <path id="Path_2" data-name="Path 2" d="M26.12198696136477,15.088001274108876 h2.865 a1.356,1.356 0 0 0 -0.133,-0.16100000000000014 q-5.108,-3.8280000000000003 -10.214,-7.659 a0.454,0.454 0 0 0 -0.6550000000000006,0 c-1.048,0.8 -2.112,1.589 -3.169,2.3810000000000002 l-7.134,5.343 l0.03200000000000003,0.139 h2.8 v0.7530000000000004 q0,5.1 0,10.206 c0,1.256 0.4770000000000002,1.745 1.71,1.746 q6.122,0 12.245,0 c1.153,0 1.6560000000000001,-0.516 1.6560000000000001,-1.681 q0,-5.162 0,-10.323 zm-2.34,6.42 h-3.6510000000000002 v3.6510000000000002 H16.721986961364735 v-3.6510000000000002 h-3.6510000000000002 V18.0990012741089 H16.721986961364735 v-3.6510000000000002 h3.408 v3.6510000000000002 h3.6510000000000002 z" fill="#54b6ff"/>
      </g>
    </g>
    
  </g></svg>