<svg xmlns="http://www.w3.org/2000/svg" width="179.949" height="50" viewBox="0 0 179.949 50">
  <g id="Group_106" data-name="Group 106" transform="translate(-578.798 -12.788)">
    <g id="Group_2" data-name="Group 2" transform="translate(578.798 12.788)">
      <path id="Path_1" data-name="Path 1" d="M215.443,66.808A18.345,18.345,0,0,1,251.793,63a22.848,22.848,0,0,1-.214,8.978,37.192,37.192,0,0,1-6.087,13.834,57.538,57.538,0,0,1-11.327,12.173.5.5,0,0,1-.758,0,53.3,53.3,0,0,1-14.85-18.311A30.257,30.257,0,0,1,215.443,66.808ZM233.576,52a14.312,14.312,0,1,0,14.282,14.65A14.295,14.295,0,0,0,233.576,52Z" transform="translate(-215.441 -48.162)" fill="#54b6ff"/>
      <g id="Group_1" data-name="Group 1" transform="translate(7.679 7.13)">
        <path id="Path_2" data-name="Path 2" d="M310.6,127.349h2.865a1.356,1.356,0,0,0-.133-.161q-5.108-3.828-10.214-7.659a.454.454,0,0,0-.655,0c-1.048.8-2.112,1.589-3.169,2.381l-7.134,5.343.032.139h2.8v.753q0,5.1,0,10.206c0,1.256.477,1.745,1.71,1.746q6.122,0,12.245,0c1.153,0,1.656-.516,1.656-1.681q0-5.162,0-10.323Zm-2.34,6.42h-3.651v3.651H301.2v-3.651h-3.651V130.36H301.2v-3.651h3.408v3.651h3.651Z" transform="translate(-292.157 -119.391)" fill="#54b6ff"/>
      </g>
    </g>
    <g id="Group_3" data-name="Group 3" transform="translate(634.145 25.928)">
      <path id="Path_3" data-name="Path 3" d="M2318.637,372.172h-4.455V364.1h-7.757v8.071h-4.455v-19.09h4.455v7.979h7.757v-7.979h4.455Z" transform="translate(-2301.97 -352.479)" fill="#54b6ff"/>
      <path id="Path_4" data-name="Path 4" d="M2528.635,414.634a7.853,7.853,0,0,1,2.817.485,6.174,6.174,0,0,1,2.181,1.389,6.264,6.264,0,0,1,1.416,2.195,7.93,7.93,0,0,1,.5,2.9,8.073,8.073,0,0,1-.5,2.928,6.3,6.3,0,0,1-1.416,2.214,6.2,6.2,0,0,1-2.181,1.4,7.756,7.756,0,0,1-2.817.491,7.847,7.847,0,0,1-2.837-.491,6.326,6.326,0,0,1-2.2-1.4,6.2,6.2,0,0,1-1.428-2.214,8.062,8.062,0,0,1-.5-2.928,7.92,7.92,0,0,1,.5-2.9,6.161,6.161,0,0,1,1.428-2.195,6.3,6.3,0,0,1,2.2-1.389A7.945,7.945,0,0,1,2528.635,414.634Zm0,10.993a2.307,2.307,0,0,0,2.063-.989,7.152,7.152,0,0,0,0-6.007,2.312,2.312,0,0,0-2.063-.983,2.369,2.369,0,0,0-2.11.983,7.088,7.088,0,0,0,0,6.007A2.364,2.364,0,0,0,2528.635,425.627Z" transform="translate(-2502.771 -408.738)" fill="#54b6ff"/>
      <path id="Path_5" data-name="Path 5" d="M2703.717,417.818a1.046,1.046,0,0,1-.334.354.873.873,0,0,1-.452.1,1.441,1.441,0,0,1-.577-.125l-.622-.269a6.854,6.854,0,0,0-.754-.269,3.365,3.365,0,0,0-.956-.124,2.023,2.023,0,0,0-1.186.295.95.95,0,0,0-.413.819.82.82,0,0,0,.269.629,2.454,2.454,0,0,0,.714.439,9.77,9.77,0,0,0,1.009.36q.563.171,1.153.38a10.315,10.315,0,0,1,1.153.491,4.34,4.34,0,0,1,1.009.694,3.105,3.105,0,0,1,.714,1,3.4,3.4,0,0,1,.269,1.415,4.661,4.661,0,0,1-.367,1.861,3.942,3.942,0,0,1-1.094,1.467,5.173,5.173,0,0,1-1.8.957,8.092,8.092,0,0,1-2.457.341,7.474,7.474,0,0,1-1.389-.131,9.573,9.573,0,0,1-1.343-.354,7.307,7.307,0,0,1-1.2-.531,5.161,5.161,0,0,1-.944-.662l.944-1.494a1.355,1.355,0,0,1,.406-.413,1.131,1.131,0,0,1,.616-.151,1.278,1.278,0,0,1,.635.157l.61.341a5.026,5.026,0,0,0,.766.341,3.326,3.326,0,0,0,1.107.157,2.819,2.819,0,0,0,.8-.1,1.411,1.411,0,0,0,.524-.268,1.078,1.078,0,0,0,.288-.38,1.065,1.065,0,0,0,.092-.432.884.884,0,0,0-.275-.668,2.414,2.414,0,0,0-.721-.452,8.813,8.813,0,0,0-1.016-.354q-.569-.164-1.159-.373a9.283,9.283,0,0,1-1.16-.5,4,4,0,0,1-1.015-.747,3.473,3.473,0,0,1-.72-1.107,4.086,4.086,0,0,1-.275-1.585,4.136,4.136,0,0,1,.334-1.644,3.823,3.823,0,0,1,1-1.369,4.92,4.92,0,0,1,1.677-.937,7.251,7.251,0,0,1,2.358-.347,7.6,7.6,0,0,1,1.422.131,7.266,7.266,0,0,1,1.29.367,6.2,6.2,0,0,1,1.1.557,5.318,5.318,0,0,1,.878.7Z" transform="translate(-2660.4 -408.738)" fill="#54b6ff"/>
      <path id="Path_6" data-name="Path 6" d="M2843.123,432.183v-17.9h2.516a1.119,1.119,0,0,1,.635.17.908.908,0,0,1,.361.511l.3,1a6.846,6.846,0,0,1,.845-.786,5.59,5.59,0,0,1,.97-.609,5.343,5.343,0,0,1,1.114-.4,5.547,5.547,0,0,1,1.3-.144,4.183,4.183,0,0,1,1.965.472,4.529,4.529,0,0,1,1.56,1.363,6.9,6.9,0,0,1,1.029,2.182,10.559,10.559,0,0,1,.373,2.928,9.006,9.006,0,0,1-.426,2.83,7.1,7.1,0,0,1-1.192,2.254,5.494,5.494,0,0,1-1.834,1.494,5.187,5.187,0,0,1-2.365.537,4.628,4.628,0,0,1-1.782-.3,4.833,4.833,0,0,1-1.31-.812v5.215Zm6.63-15.055a3.524,3.524,0,0,0-.806.085,2.958,2.958,0,0,0-.668.242,2.519,2.519,0,0,0-.57.4,5.8,5.8,0,0,0-.524.557v5.765a2.564,2.564,0,0,0,1,.714,3.155,3.155,0,0,0,1.127.2,2.392,2.392,0,0,0,1.035-.223,2.112,2.112,0,0,0,.819-.714,3.82,3.82,0,0,0,.544-1.277,8.008,8.008,0,0,0,.2-1.913,8.788,8.788,0,0,0-.158-1.808,3.749,3.749,0,0,0-.438-1.186,1.7,1.7,0,0,0-.675-.649A1.933,1.933,0,0,0,2849.754,417.128Z" transform="translate(-2796.584 -408.179)" fill="#54b6ff"/>
      <path id="Path_7" data-name="Path 7" d="M3015.591,414.634a7,7,0,0,1,2.47.419,5.374,5.374,0,0,1,1.926,1.219,5.569,5.569,0,0,1,1.258,1.959,7.2,7.2,0,0,1,.452,2.627,5.7,5.7,0,0,1-.04.747,1.178,1.178,0,0,1-.144.459.545.545,0,0,1-.282.236,1.316,1.316,0,0,1-.452.065h-7.835a3.826,3.826,0,0,0,1.035,2.47,3.078,3.078,0,0,0,2.162.766,3.867,3.867,0,0,0,1.219-.17,6.081,6.081,0,0,0,.91-.38q.4-.209.734-.38a1.527,1.527,0,0,1,.7-.17.839.839,0,0,1,.733.354l1.179,1.454a6.039,6.039,0,0,1-1.356,1.173,7.056,7.056,0,0,1-1.494.707,8.1,8.1,0,0,1-1.533.354,11.511,11.511,0,0,1-1.461.1,7.634,7.634,0,0,1-2.68-.465,6.153,6.153,0,0,1-2.187-1.382,6.521,6.521,0,0,1-1.481-2.28,8.523,8.523,0,0,1-.543-3.171,7.176,7.176,0,0,1,.465-2.581,6.274,6.274,0,0,1,3.446-3.59A6.965,6.965,0,0,1,3015.591,414.634Zm.079,2.8a2.449,2.449,0,0,0-1.821.662,3.452,3.452,0,0,0-.865,1.906h5.071a3.587,3.587,0,0,0-.125-.943,2.3,2.3,0,0,0-.406-.819,2.072,2.072,0,0,0-.741-.583A2.533,2.533,0,0,0,3015.669,417.438Z" transform="translate(-2948.088 -408.738)" fill="#54b6ff"/>
      <path id="Path_8" data-name="Path 8" d="M3184.792,366.6a1.118,1.118,0,0,1-.635-.17.909.909,0,0,1-.361-.511l-.314-1.035a8,8,0,0,1-.852.786,5.357,5.357,0,0,1-.963.609,5.1,5.1,0,0,1-1.114.393,5.725,5.725,0,0,1-1.29.138,4.18,4.18,0,0,1-1.965-.472,4.535,4.535,0,0,1-1.56-1.363,6.87,6.87,0,0,1-1.028-2.181,10.593,10.593,0,0,1-.374-2.942,9.181,9.181,0,0,1,.419-2.824,6.934,6.934,0,0,1,1.186-2.254,5.516,5.516,0,0,1,1.841-1.487,5.231,5.231,0,0,1,2.372-.537,4.553,4.553,0,0,1,1.775.308,5.121,5.121,0,0,1,1.317.806v-6.879h4.062V366.6Zm-4.114-2.909a3.511,3.511,0,0,0,.806-.085,2.829,2.829,0,0,0,.662-.242,2.9,2.9,0,0,0,.571-.393,5.107,5.107,0,0,0,.53-.55v-5.765a2.684,2.684,0,0,0-1-.714,3.114,3.114,0,0,0-1.121-.2,2.391,2.391,0,0,0-1.035.223,2.107,2.107,0,0,0-.819.714,3.8,3.8,0,0,0-.544,1.278,7.943,7.943,0,0,0-.2,1.9,8.787,8.787,0,0,0,.157,1.808,3.722,3.722,0,0,0,.439,1.186,1.7,1.7,0,0,0,.675.649A1.932,1.932,0,0,0,3180.677,363.694Z" transform="translate(-3099.313 -346.909)" fill="#54b6ff"/>
      <path id="Path_9" data-name="Path 9" d="M3364.147,427.872a1.907,1.907,0,0,1-.872-.157,1.2,1.2,0,0,1-.491-.655l-.289-.747q-.51.432-.982.76a6.182,6.182,0,0,1-.976.557,4.817,4.817,0,0,1-1.075.341,6.615,6.615,0,0,1-1.264.111,5.529,5.529,0,0,1-1.69-.243,3.531,3.531,0,0,1-1.291-.716,3.144,3.144,0,0,1-.818-1.177,4.251,4.251,0,0,1-.289-1.623,3.407,3.407,0,0,1,.367-1.485,3.658,3.658,0,0,1,1.271-1.387,8.068,8.068,0,0,1,2.437-1.045,14.9,14.9,0,0,1,3.866-.421V419.4a2.533,2.533,0,0,0-.491-1.739,1.8,1.8,0,0,0-1.4-.536,3.7,3.7,0,0,0-1.179.157,5.313,5.313,0,0,0-.819.354c-.241.131-.474.249-.7.354a1.928,1.928,0,0,1-.812.157,1.228,1.228,0,0,1-.714-.2,1.507,1.507,0,0,1-.465-.5l-.734-1.271a8.259,8.259,0,0,1,2.732-1.618,9.578,9.578,0,0,1,3.217-.531,5.881,5.881,0,0,1,2.22.4,4.777,4.777,0,0,1,1.677,1.114,4.872,4.872,0,0,1,1.055,1.7,6.109,6.109,0,0,1,.367,2.149v8.49Zm-4.665-2.476a3.225,3.225,0,0,0,1.376-.275,4.2,4.2,0,0,0,1.192-.891v-1.861a10.441,10.441,0,0,0-2,.159,4.844,4.844,0,0,0-1.245.4,1.509,1.509,0,0,0-.635.542,1.293,1.293,0,0,0-.176.661,1.151,1.151,0,0,0,.379.985A1.841,1.841,0,0,0,3359.482,425.4Z" transform="translate(-3263.626 -408.179)" fill="#54b6ff"/>
      <path id="Path_10" data-name="Path 10" d="M3504.81,352.18v13.613a6.525,6.525,0,0,1-.243,1.8,3.662,3.662,0,0,1-2.267,2.483,6.081,6.081,0,0,1-2.26.367,6.758,6.758,0,0,1-.924-.059,7.891,7.891,0,0,1-.884-.177l.131-2.136a.575.575,0,0,1,.183-.406,1.048,1.048,0,0,1,.629-.131,3.138,3.138,0,0,0,.773-.079.942.942,0,0,0,.479-.275,1.13,1.13,0,0,0,.249-.531,4.132,4.132,0,0,0,.073-.858V352.18Zm.471-3.721a2.134,2.134,0,0,1-.2.911,2.37,2.37,0,0,1-.537.747,2.637,2.637,0,0,1-.792.511,2.462,2.462,0,0,1-.964.19,2.287,2.287,0,0,1-.93-.19,2.6,2.6,0,0,1-.766-.511,2.343,2.343,0,0,1-.525-.747,2.211,2.211,0,0,1-.19-.911,2.29,2.29,0,0,1,.19-.93,2.4,2.4,0,0,1,.525-.76,2.45,2.45,0,0,1,.766-.511,2.36,2.36,0,0,1,.93-.183,2.542,2.542,0,0,1,.964.183,2.487,2.487,0,0,1,.792.511,2.425,2.425,0,0,1,.537.76A2.209,2.209,0,0,1,3505.281,348.459Z" transform="translate(-3395.354 -346.074)" fill="#54b6ff"/>
      <path id="Path_11" data-name="Path 11" d="M3608.54,414.634a7,7,0,0,1,2.47.419,5.372,5.372,0,0,1,1.925,1.219,5.57,5.57,0,0,1,1.259,1.959,7.2,7.2,0,0,1,.451,2.627,5.807,5.807,0,0,1-.039.747,1.2,1.2,0,0,1-.144.459.552.552,0,0,1-.282.236,1.319,1.319,0,0,1-.452.065h-7.835a3.834,3.834,0,0,0,1.036,2.47,3.077,3.077,0,0,0,2.161.766,3.867,3.867,0,0,0,1.219-.17,6.138,6.138,0,0,0,.911-.38c.266-.14.511-.266.733-.38a1.522,1.522,0,0,1,.7-.17.838.838,0,0,1,.733.354l1.179,1.454a6.05,6.05,0,0,1-1.356,1.173,7.064,7.064,0,0,1-1.493.707,8.113,8.113,0,0,1-1.533.354,11.505,11.505,0,0,1-1.461.1,7.63,7.63,0,0,1-2.68-.465,6.144,6.144,0,0,1-2.187-1.382,6.521,6.521,0,0,1-1.481-2.28,8.533,8.533,0,0,1-.543-3.171,7.177,7.177,0,0,1,.466-2.581,6.266,6.266,0,0,1,3.446-3.59A6.962,6.962,0,0,1,3608.54,414.634Zm.079,2.8a2.446,2.446,0,0,0-1.821.662,3.442,3.442,0,0,0-.865,1.906H3611a3.587,3.587,0,0,0-.125-.943,2.277,2.277,0,0,0-.406-.819,2.068,2.068,0,0,0-.741-.583A2.529,2.529,0,0,0,3608.619,417.438Z" transform="translate(-3490.044 -408.738)" fill="#54b6ff"/>
    </g>
  </g>
</svg>
